<?xml version="1.0" encoding="utf-8"?>
<!-- Generator: Adobe Illustrator 23.0.1, SVG Export Plug-In . SVG Version: 6.00 Build 0)  -->
<svg version="1.1" id="Layer_1" xmlns="http://www.w3.org/2000/svg" xmlns:xlink="http://www.w3.org/1999/xlink" x="0px" y="0px"
	 viewBox="0 0 1000 1000" style="enable-background:new 0 0 1000 1000;" xml:space="preserve">
<style type="text/css">
	.st0{fill:#77BF43;}
	.st1{fill:#F9A63F;}
	.st2{fill:#EE4543;}
	.st3{fill:#60A2D8;}
	.st4{fill-rule:evenodd;clip-rule:evenodd;fill:#111516;}
</style>
<g>
	<g>
		<g>
			<path class="st0" d="M349.1,272.1l40.1,20.4l-68.9,97.8l-10.6-6.6c0,0,1.2-18.2,14.9-55C338.2,292.1,349.1,272.1,349.1,272.1z"/>
			<path class="st0" d="M257.5,356.2l17.7-4.4l-7.9,119.4l-5.4-0.1c0,0-2.7-15.2-4-55.1C256.7,376.1,257.5,356.2,257.5,356.2z"/>
			
				<rect x="272" y="304.2" transform="matrix(0.7071 -0.7071 0.7071 0.7071 -137.472 286.3939)" class="st0" width="9.9" height="9.9"/>
			<path class="st0" d="M334.7,386.6l60.2-7.9l0,119.7l-29.9,2.6c0,0-9.5-15.6-19.5-53.5C335.6,409.5,334.7,386.6,334.7,386.6z"/>
			<path class="st0" d="M282.6,486.3l37.8-24.5l50.3,108.6l-11,5.9c0,0-15.2-10.2-40.2-40.4C294.5,505.7,282.6,486.3,282.6,486.3z"
				/>
		</g>
		<g>
			<path class="st1" d="M309.7,607.6l5-17.6l99.4,66.6l-2.7,4.6c0,0-14.5-5.2-49.8-24.1C326.5,618.2,309.7,607.6,309.7,607.6z"/>
			<rect x="273.7" y="562.3" transform="matrix(0.5 -0.866 0.866 0.5 -351.9091 524.8682)" class="st1" width="9.9" height="9.9"/>
		</g>
		<g>
			<path class="st2" d="M374.5,555.9l23.3-56.1l103.6,59.9l-12.7,27.1c0,0-18.3,0.4-56.1-9.9C394.8,566.6,374.5,555.9,374.5,555.9z"
				/>
			<path class="st2" d="M434.8,650.9l-2.4-45l119.2,10.7l-0.4,12.5c0,0-16.4,8-55.1,14.6C457.5,650.3,434.8,650.9,434.8,650.9z"/>
			<path class="st2" d="M553.4,688.1L540.7,675l107.4-52.8l2.6,4.7c0,0-11.8,10-45.7,31C571,678.9,553.4,688.1,553.4,688.1z"/>
			<rect x="498" y="689.9" transform="matrix(0.866 -0.5 0.5 0.866 -280.0446 344.5682)" class="st2" width="9.9" height="9.9"/>
			<path class="st2" d="M541.1,606.1l-37-48.2l103.6-59.8l17.1,24.6c0,0-8.8,16-36.6,43.6C560.5,593.9,541.1,606.1,541.1,606.1z"/>
		</g>
		<g>
			<path class="st1" d="M653.5,601.4L613.4,581l68.9-97.8l10.6,6.6c0,0-1.2,18.2-14.9,55C664.4,581.4,653.5,601.4,653.5,601.4z"/>
			<path class="st1" d="M745,517.3l-17.7,4.4l8-119.4l5.4,0.1c0,0,2.7,15.2,4,55.1C745.9,497.4,745,517.3,745,517.3z"/>
			
				<rect x="720.7" y="559.4" transform="matrix(0.7071 -0.7071 0.7071 0.7071 -186.5566 678.3637)" class="st1" width="9.9" height="9.9"/>
			<path class="st1" d="M667.8,486.9l-60.2,7.9l0-119.7l29.9-2.6c0,0,9.5,15.6,19.5,53.5C666.9,464,667.8,486.9,667.8,486.9z"/>
			<path class="st1" d="M720,387.3l-37.8,24.5l-50.3-108.6l11-5.9c0,0,15.2,10.2,40.2,40.4C708.1,367.9,720,387.3,720,387.3z"/>
		</g>
		<path class="st0" d="M692.9,265.9l-5,17.6l-99.4-66.6l2.7-4.6c0,0,14.5,5.2,49.8,24.1C676.1,255.3,692.9,265.9,692.9,265.9z"/>
		<rect x="719" y="301.4" transform="matrix(0.5 -0.866 0.866 0.5 96.6823 780.0914)" class="st0" width="9.9" height="9.9"/>
		<g>
			<path class="st3" d="M461.4,267.4l37,48.2l-103.6,59.8l-17.1-24.6c0,0,8.8-16,36.6-43.6C442.1,279.7,461.4,267.4,461.4,267.4z"/>
			<path class="st3" d="M628,317.6l-23.3,56.1l-103.6-59.9l12.7-27.1c0,0,18.3-0.4,56.1,9.9C607.7,306.9,628,317.6,628,317.6z"/>
			<path class="st3" d="M567.7,222.6l2.4,45l-119.2-10.7l0.4-12.5c0,0,16.4-8,55.1-14.6C545,223.2,567.7,222.6,567.7,222.6z"/>
			<path class="st3" d="M449.1,185.4l12.7,13.1l-107.4,52.8l-2.6-4.7c0,0,11.8-10,45.7-31S449.1,185.4,449.1,185.4z"/>
			<rect x="494.7" y="173.8" transform="matrix(0.866 -0.5 0.5 0.866 -22.4082 273.7611)" class="st3" width="9.9" height="9.9"/>
		</g>
	</g>
	<g>
		
			<rect x="119.6" y="758.8" transform="matrix(0.707 -0.7072 0.7072 0.707 -503.0156 310.284)" class="st4" width="6.8" height="6.8"/>
		
			<rect x="196.2" y="756.6" transform="matrix(0.7071 -0.7072 0.7072 0.7071 -478.9771 363.7915)" class="st4" width="6.8" height="6.8"/>
		<polygon class="st4" points="169.8,806 165.1,810.7 160.4,806 155.6,810.8 160.4,815.7 165.1,811 169.8,815.7 174.6,810.8 		"/>
		<polygon class="st4" points="430.9,819.4 426.1,824.1 421.4,819.4 416.6,824.3 421.4,829.1 426.1,824.4 430.9,829.1 435.7,824.3 
					"/>
		<polygon class="st4" points="259.9,754.8 255.2,759.5 250.5,754.8 245.7,759.6 250.5,764.4 255.2,759.7 259.9,764.4 264.8,759.6 
					"/>
		<g>
			<path class="st4" d="M478.5,439.7c0-9,0-18,0-27c0-3.4-0.3-3.7-3.7-3.7c-2.3,0-4.8,0.1-6.3-2c-1.2-1.8-2.1-3.9-2.7-5.9
				c-0.5-1.6,0.3-2.4,2.2-2.4c8.4,0.1,16.8,0,25.1,0c4.3,0,8.5,0,12.8,0c8.2,0,14.6,3.4,18.8,10.5c1.8,3.1,2.8,6.6,2.7,10.2
				c-0.1,3.2,0.1,6.6-0.6,9.7c-1.5,6-4.8,10.9-10.6,13.7c-3.4,1.7-7,2.7-10.9,2.6c-3.6-0.1-7.2,0-10.7,0c-2.6,0-3.1,0.5-3.1,3.1
				c0,6.3,0,12.6,0,18.9c0,2.7-0.2,2.9-2.8,3c-2.5,0-5-0.1-7.5,0c-2,0.1-2.6-0.8-2.6-2.7C478.6,458.4,478.6,449.1,478.5,439.7
				C478.6,439.7,478.5,439.7,478.5,439.7z M491.4,422.4C491.4,422.4,491.5,422.4,491.4,422.4c0.1,3.2,0.2,6.4,0,9.5
				c-0.1,1.9,0.6,2.5,2.3,2.5c3.8,0,7.6,0.1,11.3-0.1c3.8-0.2,6.2-2.6,8-5.7c1.9-3.3,1.7-7,1.1-10.5c-0.7-3.8-3-7.1-6.9-7.9
				c-4.5-0.8-9.1-1.8-13.8-0.5c-1.5,0.4-2,1.1-1.9,2.5C491.5,415.7,491.4,419,491.4,422.4z"/>
			<path class="st4" d="M435.9,410.5c-3.2,0.7-5.2,3.4-5.9,6.9c-0.3,2.5,0.8,4.7,2.6,6c2.7,2,5.8,3.5,8.8,5.1
				c3.5,1.8,7.3,3.2,10.6,5.3c2.8,1.7,5.7,3.7,7.8,6.2c4.1,5,5.4,10.8,3.4,17.4c-1.4,4.7-3.9,8.2-7.6,11c-5.3,4-11.5,4.7-17.9,4.3
				c-8.2-0.5-15.1-3.8-21-9.5c-0.7-0.7-1.1-1.3-0.4-2.2c1.7-2.1,3.4-4.2,5-6.3c0.9-1.1,1.7-1.4,2.8-0.4c3.3,3,7.1,5.2,11.3,6.5
				c5.7,1.7,13.2,0.7,15.6-6.8c0.6-2-1-5.4-3.2-7.2c-4.6-3.7-10.2-5.7-15.3-8.3c-4.8-2.4-9.5-5.1-12.5-9.8
				c-3.4-5.2-3.7-10.8-1.6-16.6c2.3-6.6,7.3-10.1,13.7-12.3c2.8-1,5.5-1.1,8.3-1.1c5.9-0.1,11.8,0,17.6,0c2.2,0,2.6,0.5,2.5,2.6
				c-0.3,4.8-3.8,8.3-8.6,8.5c-1.9,0.1-3.8,0-5.7,0C446.2,409.8,439.5,409.7,435.9,410.5z"/>
			<path class="st4" d="M541.3,439.6c0-8.2,0-16.5,0-24.7c0-0.9-0.1-1.8-0.1-2.6c-0.1-1.4-0.8-2.2-2.2-2.4c-1.4-0.2-2.8-0.6-4.2-0.9
				c-4.4-1-6.6-4-6.4-8.5c0-1.2,0.5-1.7,1.7-1.7c6.5,0,13,0,19.4,0c2.3,0,4.4,2.8,4.4,5.7c0,10.3,0,20.7,0,31c0,6.8,0,13.6,0,20.5
				c0,2.8,1,3.8,3.8,3.8c4.3,0,8.5,0,12.8,0c3.1,0,4.5-1.1,4.3-4.2c-0.1-2.4,0.9-2.7,2.8-2.6c2.4,0.1,4.7,0.1,7.1,0
				c1.4-0.1,1.9,0.5,1.9,1.9c-0.1,2.8,0,5.7,0,8.5c-0.1,4.7-2.2,7-6.9,7c-10.5,0.1-21.1,0.2-31.6-0.1c-5-0.2-6.9-0.1-6.8-7.2
				C541.4,455.3,541.3,447.4,541.3,439.6z"/>
		</g>
		<g>
			<path class="st4" d="M309.4,802.9c-23.4,0-46.8,0-70.2,0c-3.5,0-3.9,0.5-4.2,3.9c-0.3,5-3.5,8.6-8,10.6c-3,1.3-5.9,1.1-8.8,1.2
				c-1.1,0-1.6-0.5-1.5-1.6c0.1-0.8,0-1.6,0-2.4c0-1.2-0.4-2.7,0.2-3.5c0.5-0.7,2.2-0.5,3.2-1c1.8-1,4.4-0.8,5.4-3.1
				c0.5-1.2,1-2.5,1-3.8c0.1-8.7,0-17.3,0-26c0-0.6,0-1.2,0-1.8c0.1-4.4,3.3-6.9,7.5-5.6c0.6,0.2,1.3,1.5,1.4,2.3
				c0.1,6.4,0.1,12.7,0.1,19.1c0,2.9,0.4,3.4,3.4,3.5c3,0,5.9,0,8.9,0c2.3,0,2.8-0.5,2.8-2.7c0-5.3,0-10.7,0-16c0-0.5,0-1.1,0-1.6
				c0.2-3.2,1-4.2,4.2-4.4c4.3-0.2,4.5-1.1,4.5,3.8c0,5.9,0,11.8,0,17.6c0,3,0.2,3.2,3.2,3.2c7.9,0,15.8,0.1,23.7,0
				c2.8,0,2.8-0.1,2.9-2.8c0.2-4.3-0.5-8.4-3.6-11.6c-1.6-1.7-3.5-2.9-6-2.9c-1.7,0-3.4-0.1-5.1,0c-4.3,0.3-5.8-3.5-5.1-7
				c0.1-0.5,1-1.1,1.6-1.1c4.2-0.1,8.5-0.5,12.7,0c3.4,0.4,6.3,2.3,8.6,4.9c3.2,3.4,5.1,7.4,5.2,12.1c0.1,2.2,0.4,4.3,0.5,6.4
				c0,1.4,0.7,2,2,2c2.6,0,5.1,0,7.7,0c1.4,0,2.1-0.7,2.1-2.1c0-3.2,0-6.5,0-9.7c0-3.5,0.1-7,0-10.5c0-1.6,0.6-2.3,2.3-2.4
				c3.1-0.1,6.2-0.7,9.2-0.6c4.2,0.2,8.5,0.2,12.4,1.5c3.6,1.2,6.2,4.3,6.5,8.5c0.3,4,0.3,8,0.4,11.9c0.1,3.1,0.3,3.4,3.4,3.4
				c2.2,0,4.3,0.1,6.5,0c2.5,0,2.7-0.2,2.7-2.8c0-9.8,0-19.6,0-29.4c0-2.1-0.1-4.2,1.2-6.2c1.4-2.1,5.7-4,7.9-2.7
				c0.5,0.3,0.6,1.4,0.6,2.1c0,12,0,24.1,0,36.1c0,2.9,0,2.9,2.9,2.8c2.1,0,4.2-0.1,6.3,0.1c2,0.1,2.5-0.7,2.5-2.6
				c-0.1-10.5-0.1-21-0.1-31.4c0-5.4,3.5-7.8,8.5-7.2c0.4,0,1,0.8,1.1,1.3c0.1,1.4,0.1,2.8,0.1,4.3c0,13.2,0,26.4,0.1,39.5
				c0,2.5-1.9,4.4-4.5,4.4c-5.5,0-10.9,0-16.4,0C345.5,802.9,327.4,802.9,309.4,802.9z M319,787.7
				C319.1,787.7,319.1,787.7,319,787.7c0.1,1.8,0.1,3.5,0.1,5.3c0,1.3,0.6,1.7,1.7,1.7c3.1,0,6.2,0,9.3,0c1.3,0,1.9-0.5,1.9-1.8
				c0-3.2,0.2-6.5-0.2-9.7c-0.2-1.4-1.3-3.4-2.6-3.9c-2.4-1-5.2-1.1-7.9-1.6c-1.5-0.3-2.3,0.5-2.3,2C319,782.3,319,785,319,787.7z"
				/>
			<path class="st4" d="M598.5,803.2c-17.6,0-35.1,0-52.7,0c-2,0-2.7,0.8-3.2,2.9c-0.6,2.5-1.3,4.9-2.3,7.2
				c-1.5,3.3-4.5,4.9-7.9,5.2c-4.5,0.4-9,0.1-13.6,0.2c-1.1,0-1.6-0.4-1.6-1.6c0-1.7,0.1-3.4,0-5.1c0-1.3,0.5-1.6,1.7-1.6
				c3,0,6.1,0,9.1-0.1c2.5,0,4.3-1.2,5.4-3.5c1.1-2.4,0.5-3.6-2.3-3.6c-5.7,0-11.4-0.1-17,0c-1.9,0-2.7-0.4-2.6-2.5
				c0.5-7.5,0.9-14.9,1.4-22.4c0.3-3.5,4.1-7.9,8.2-8c6.7-0.2,13.4-0.3,20-0.4c1.7,0,1.5,1.3,1.5,2.3c0.1,3.9,0,7.8,0,11.8
				c0,2.8,0.2,5.7,0.1,8.5c0,1.6,0.7,2.2,2.1,2.3c2.6,0,5.3,0,7.9,0c1.5,0,1.4-1.1,1.5-2.2c0.4-4.6,0.7-9.2,1.2-13.8
				c0.5-3.8,4.4-7.9,8.1-8.3c4.3-0.5,8.7-0.8,13.1-1.1c1.5-0.1,2.2,0.5,2.2,2.1c0.1,5.8-1.8,6.8-7.3,6.8c-5.2,0-8.1,2.4-7.8,6.9
				c0.2,2.6,0.1,5.1,0,7.7c0,1.3,0.4,2,1.9,2c8.1,0,16.2,0,24.3,0c1.6,0,2.3-0.7,2.3-2.3c-0.1-5.1,0-10.3,0-15.4c0-3.2,1.8-5,5-5
				c0.5,0,1,0,1.4,0c1.8-0.3,2.4,0.6,2.4,2.3c0,5.9,0,11.8,0.1,17.6c0,2.6,0.2,2.8,2.7,2.9c5.5,0.3,5.6,0.3,5.7-5.4
				c0.1-4.2,0-8.4,0.1-12.6c0.1-4.4,4.3-5.5,7.7-4.7c0.4,0.1,0.8,1.3,0.8,2c0.1,5.7,0.1,11.5,0.1,17.2c0,3.2,0.3,3.4,3.5,3.4
				c4.9,0,4.9,0,4.9-4.9c0-4.8-0.1-9.6,0-14.4c0-4.2,3.3-6.6,7.3-5.3c0.6,0.2,1.2,1.5,1.3,2.3c0.1,6.4,0.1,12.7,0.1,19.1
				c0,3,0.1,3.1,3.2,3.2c2.4,0,4.9-0.1,7.3,0c1.6,0.1,2.3-0.5,2.3-2.2c-0.1-6.9-0.1-13.8-0.1-20.7c0-4.4,0.1-8.8-0.1-13.2
				c-0.1-3.9,5.3-5.9,7.7-5.1c0.4,0.1,0.9,1,0.9,1.5c0,14.1,0,28.1,0,42.2c0,4.7-1.2,6-6.2,6C633.2,803.1,615.8,803.1,598.5,803.2
				C598.5,803.1,598.5,803.1,598.5,803.2z M534.1,786.6c0-0.9,0-1.9,0-2.8c-0.1-5.8-1-6.6-6.8-5.7c-3.7,0.6-5.7,2-5.9,4.8
				c-0.2,3.4-0.2,6.8,0,10.1c0,0.6,0.9,1.6,1.5,1.6c3.1,0.1,6.2,0,9.3,0c1.3,0,2-0.7,1.9-2C534.1,790.6,534.1,788.6,534.1,786.6z"/>
			<path class="st4" d="M466.4,785c0,4.3,0,8.5,0,12.8c0,3.1-0.9,5.4-5,5.2c-4.8-0.2-3.9,0-3.9-3.9c0-6.1,0-12.3,0-18.4
				c0-2.1-0.5-2.8-2.6-2.6c-1.8,0.1-3.6,0.4-5.3,1c-2.2,0.7-2.4,2.7-2.5,4.7c0,4.4,0.3,8.8-0.1,13.2c-0.3,3.9-0.7,8-2.1,11.6
				c-1.8,4.8-5.9,7.5-10.7,9.1c-4.7,1.8-13.6,0.8-15.9,0c-2.1-0.8-4.3-1.6-6.2-2.8c-3.5-2.1-5.5-5.7-5.9-9.5
				c-0.6-6.8-0.7-13.7-0.7-20.6c0-3.8,2.2-5.5,6-5.5c2.4,0,4.7,0,7.1,0c1.3,0,1.9,0.3,1.7,1.8c-0.1,1-0.1,2-0.1,3
				c-0.2,3-1,3.9-4,4.7c-0.7,0.2-1.7,1-1.7,1.5c0.1,4.4-0.5,8.7,1,13c1.2,3.5,3.6,5.7,6.9,6.7c4,1.2,7.9,0.6,11.3-2
				c2.5-1.9,3.6-4.7,3.7-7.8c0.2-5.5,0-10.9,0.2-16.4c0.1-3.3,0.5-6.7,2.9-9.2c1.4-1.5,3.2-3.1,5.1-3.8c2.5-0.9,5.3-1.2,8.1-1.4
				c3.4-0.2,6.8-0.1,10.1-0.1c2.4,0,2.6,0.2,2.6,2.7C466.4,776.2,466.4,780.6,466.4,785z"/>
			<polygon class="st4" points="720.9,819.4 716.2,824.1 711.5,819.4 706.6,824.3 711.5,829.1 716.2,824.4 720.9,829.1 725.7,824.3 
							"/>
			<path class="st4" d="M756.4,785c0,4.3,0,8.5,0,12.8c0,3.1-0.9,5.4-5,5.2c-4.8-0.2-3.9,0-3.9-3.9c0-6.1,0-12.3,0-18.4
				c0-2.1-0.5-2.8-2.6-2.6c-1.8,0.1-3.6,0.4-5.3,1c-2.2,0.7-2.4,2.7-2.5,4.7c0,4.4,0.3,8.8-0.1,13.2c-0.3,3.9-0.7,8-2.1,11.6
				c-1.8,4.8-5.9,7.5-10.7,9.1c-4.7,1.8-13.6,0.8-15.9,0c-2.1-0.8-4.3-1.6-6.2-2.8c-3.5-2.1-5.5-5.7-5.9-9.5
				c-0.6-6.8-0.7-13.7-0.7-20.6c0-3.8,2.2-5.5,6-5.5c2.4,0,4.7,0,7.1,0c1.3,0,1.9,0.3,1.7,1.8c-0.1,1-0.1,2-0.1,3
				c-0.2,3-1,3.9-4,4.7c-0.7,0.2-1.7,1-1.7,1.5c0.1,4.4-0.5,8.7,1,13c1.2,3.5,3.6,5.7,6.9,6.7c4,1.2,7.9,0.6,11.3-2
				c2.5-1.9,3.6-4.7,3.7-7.8c0.2-5.5,0-10.9,0.2-16.4c0.1-3.3,0.5-6.7,2.9-9.2c1.4-1.5,3.2-3.1,5.1-3.8c2.5-0.9,5.3-1.2,8.1-1.4
				c3.4-0.2,6.8-0.1,10.1-0.1c2.4,0,2.6,0.2,2.6,2.7C756.4,776.2,756.4,780.6,756.4,785z"/>
			<path class="st4" d="M177.2,802.9c-10.5,0-20.9,0-31.4,0c-1.8,0-2.9,0.7-3.4,2.5c-1.2,5.2-4.4,9.2-9.1,11.1
				c-5.4,2.3-11.1,3.3-17,1.2c-2.4-0.8-4.8-1.5-6.9-3c-2.8-2-4.5-4.5-5.5-7.8c-2.5-7.9-1.1-16-1.2-24c0-2.4,1.7-3.8,4.1-3.8
				c3.1,0,6.2,0,9.3-0.1c1.6-0.1,2.2,0.6,2,2.1c-0.2,1.2-0.1,2.4-0.5,3.5c-0.7,2.1-2.1,3.3-4.5,3.3c-1.4,0-2.1,1.2-2.1,2.5
				c-0.1,4.5,0.1,9,1.6,13.4c1.4,3.9,4.6,5.5,8.3,6.2c3,0.6,6.1,0.1,8.8-1.6c2.7-1.8,3.7-4.5,4.3-7.6c1.6-8.6,0.5-17.2,0.8-25.8
				c0.1-4.9,3.2-7.3,8-5.8c0.4,0.1,0.8,1.1,0.8,1.7c0.1,6.9,0.1,13.8,0.1,20.7c0,2.8,0.1,3,2.9,3c4.1,0,8.1-0.1,12.2,0
				c1.7,0,2.2-0.7,2.2-2.3c0-5.7,0-11.4,0-17c0-4.5,3.3-7.1,7.7-6.1c0.5,0.1,1.2,1.2,1.2,1.8c0.1,6.1,0,12.2,0,18.2
				c0,6.4,0.3,5.2,5.2,5.3c2,0,4.1,0,6.1,0c1.6,0,2.3-0.8,2.3-2.4c0-3.1,0.1-6.2,0-9.3c-0.3-8.9,6.2-13.6,14-13.8
				c4.7-0.1,9.3,0,14,0c2.4,0,2.5,0.2,2.5,2.7c0,8.2-0.1,16.3-0.1,24.5c0,5.4-0.9,6.5-6.7,6.6C197.4,803,187.3,802.9,177.2,802.9
				C177.2,802.9,177.2,802.9,177.2,802.9z M205.3,786.2C205.3,786.2,205.3,786.2,205.3,786.2c0.1-2.1,0.1-4.2,0.1-6.3
				c0-1.3-0.5-1.9-1.8-2.2c-2.6-0.5-5.1-0.2-7.5,0.7c-1.8,0.7-2.9,1.8-3,3.7c-0.2,3.4-0.1,6.7-0.2,10.1c0,1.9,1.1,2.4,2.7,2.4
				c2.5,0,5-0.1,7.5,0c1.7,0,2.3-0.8,2.2-2.4C205.2,790.2,205.3,788.2,205.3,786.2z"/>
			<path class="st4" d="M847.9,803.2c-7.8,0-15.5,0-23.3,0c-1.8,0-2.7-0.5-2.5-2.4c0.1-1.3,0.1-2.7,0-4.1c-0.1-1.6,0.6-2.1,2.1-2.1
				c6.1,0.1,12.3,0.1,18.4,0.1c2.5,0,2.9-0.3,2.9-2.8c-0.1-3.6-0.3-7.1-0.6-10.7c-0.1-1.5-1.3-2-2.6-2.5c-2.7-1.1-5.4-0.8-8.2-0.8
				c-0.9,0-1.8,0-2.6-0.2c-2.8-0.6-3.8-1.7-3.8-4.6c0-4.9-0.4-4.2,3.9-4c5,0.2,10,0.6,14.9,1.4c3.2,0.5,5.4,2.7,6.9,5.9
				c2.1,4.6,0.8,9.3,1.2,14c0.3,4.7-0.3,4.2,4.4,4.2c2.2,0,4.3,0,6.5,0c1.6,0,2.2-0.6,2.2-2.3c-0.1-10.8,0.2-21.6-0.1-32.4
				c-0.1-5.1,3.7-6.6,7.4-6.6c1.2,0,1.6,0.7,1.6,1.8c-0.1,13-0.1,25.9-0.1,38.9c0,1.3,0,2.6-0.1,3.9c-0.1,3.9-1.4,5.1-5.4,5.1
				c-4.8,0-9.6,0-14.4,0C853.7,803.1,850.8,803.1,847.9,803.2C847.9,803.1,847.9,803.2,847.9,803.2z"/>
			<path class="st4" d="M816.2,790.5c0,5.7-0.1,11.3,0,17c0.1,6.2-5.2,11.3-11.3,11.2c-4.1,0-8.1-0.1-12.2,0c-1.4,0-2-0.5-1.9-1.9
				c0.1-1.1,0-2.3,0-3.4c0-3.1,0-3,3.1-3c2.9,0,5.8,0,8.7,0c2.3,0,4.3-1.7,4.9-3.8c0.5-2.1,0.1-2.8-2-2.9c-4.8-0.1-9.6-0.1-14.4,0
				c-6.6,0.1-5.4-0.9-5.3-5.1c0.2-6.3,0.2-12.6,0.7-18.8c0.4-4.8,3.7-9,8.8-9.4c6.5-0.5,13.1-0.5,19.6-0.5c0.4,0,1.2,1.3,1.3,2
				c0.1,3,0.1,6.1,0.1,9.1c0,3.2,0,6.3,0,9.5C816.3,790.5,816.2,790.5,816.2,790.5z M807.8,786.6
				C807.8,786.6,807.8,786.6,807.8,786.6c0-1.9,0-3.8,0.1-5.7c0.1-1.8-0.6-2.9-2.5-2.8c-2,0.1-4,0.2-5.9,0.6
				c-3.1,0.6-4.4,2.5-4.4,5.8c0,2.5,0.1,5,0,7.5c-0.1,1.8,0.7,2.7,2.5,2.7c2.8,0,5.7-0.1,8.5,0c1.4,0,1.9-0.6,1.9-2
				C807.8,790.6,807.8,788.6,807.8,786.6z"/>
			<path class="st4" d="M487,802.9c-4.4,0-8.8,0-13.2,0c-1.7,0-2.3-0.5-2.1-2.3c0.1-1.1,0-2.2,0-3.2c-0.1-2.4,0.2-2.7,2.6-2.7
				c6,0,12,0,18,0c2.9,0,3.2-0.2,3.3-3.1c0.1-2.3,0.1-4.6,0.1-6.9c0.1-4.8-2.4-6.3-6.8-6.6c-2.9-0.2-5.8-0.2-8.7-0.6
				c-2.5-0.3-4.3-5.6-2.5-7.3c0.6-0.6,1.7-0.9,2.6-0.9c5.3-0.2,10.5-0.3,15.7,1.1c4.3,1.1,7.9,5.3,8.1,9.8
				c0.2,6.1,0.2,12.3,0.2,18.4c0,3.3-1.1,4.3-4.4,4.4C495.6,803,491.3,802.9,487,802.9C487,802.9,487,802.9,487,802.9z"/>
			<path class="st4" d="M777.7,788.6c0,4.3,0.2,8.7-0.1,13c-0.2,3.1-0.5,6.4-1.6,9.3c-1.1,2.8-3.2,5-6.2,6.5c-3,1.5-6,1.3-9,1.3
				c-1.4,0-2.1-0.6-2-2.1c0.1-1.5,0.1-3,0-4.5c0-1.2,0.6-1.5,1.7-1.8c1.9-0.4,3.8-0.8,5.5-1.7c0.9-0.5,1.8-1.8,2-2.9
				c0.4-3.2,0.7-6.5,0.7-9.8c0.1-7.3,0-14.6,0.1-21.9c0-2.7,1-3.7,3.7-4.2c4.9-0.8,5.2-0.5,5.2,4.5
				C777.7,779.2,777.7,783.9,777.7,788.6z"/>
			<path class="st4" d="M665.2,779.4c0-7,0-14,0-21.1c0-2.5,2-4.8,4.4-4.9c2.8-0.1,5.7,0,8.5,0c1.3,0,2,0.7,1.9,2
				c0,1.2,0.3,2.5,0.1,3.6c-0.4,2.3-2,3.7-4.3,4c-1.4,0.2-1.9,0.9-1.9,2.3c0.1,10.2,0.1,20.4,0.1,30.6c0,0.9,0,1.8-0.2,2.6
				c-0.5,3.7-4.3,5.9-7.7,4.3c-0.5-0.3-0.9-1.4-1-2.1C665.1,793.6,665.1,786.5,665.2,779.4C665.1,779.4,665.1,779.4,665.2,779.4z"/>
			<path class="st4" d="M884.7,780c0-6.9,0-13.8,0-20.7c0-3.1,2.8-6,5.9-6c2.5,0,5,0.1,7.5,0.1c1.5,0,2,0.6,2.1,2
				c0.1,2.1,0.1,4.3-1.5,5.9c-0.7,0.7-1.7,1.5-2.7,1.6c-1.9,0.2-2.3,1.3-2.3,2.9c0,5.3,0.1,10.5,0,15.8c-0.1,6.1-0.3,12.1-0.5,18.2
				c-0.1,1.7-0.8,2.8-2.6,3.1c-0.5,0.1-1.1,0.2-1.6,0.3c-4.1,0.4-4.3,0.2-4.3-4C884.8,792.8,884.8,786.4,884.7,780
				C884.8,780,884.8,780,884.7,780z"/>
		</g>
	</g>
</g>
</svg>
